<svg width="531" height="531" viewBox="0 0 531 531" fill="none" xmlns="http://www.w3.org/2000/svg">
<rect x="14" y="14" width="503" height="503" rx="107" fill="#B4DCC5" stroke="#093D34" stroke-width="28"/>
<path d="M127 125C127 105.118 143.118 89 163 89H367C386.882 89 403 105.118 403 125V406C403 425.882 386.882 442 367 442H163C143.118 442 127 425.882 127 406V125Z" fill="#093D34"/>
<path d="M152 126C152 120.477 156.477 116 162 116H368C373.523 116 378 120.477 378 126V262C378 267.523 373.523 272 368 272H162C156.477 272 152 267.523 152 262V126Z" fill="#B4DCC5"/>
<path d="M294.44 211.552C294.44 218.037 292.691 223.499 289.192 227.936C285.693 232.373 280.275 235.232 272.936 236.512V254.56H258.856V237.024C255.528 236.683 252.072 236.043 248.488 235.104C244.989 234.08 241.192 232.629 237.096 230.752L241.832 217.568C246.611 219.616 250.664 221.067 253.992 221.92C257.405 222.688 260.733 223.072 263.976 223.072C273.875 223.072 278.824 219.403 278.824 212.064C278.824 209.077 278.056 206.731 276.52 205.024C275.069 203.317 272.339 201.824 268.328 200.544L257.832 197.088C245.288 192.992 239.016 184.757 239.016 172.384C239.016 166.325 240.637 161.12 243.88 156.768C247.123 152.416 252.115 149.6 258.856 148.32V130.4H272.936V148.064C275.923 148.405 278.909 149.003 281.896 149.856C284.883 150.709 287.997 151.861 291.24 153.312L286.504 166.496C282.408 164.875 278.909 163.723 276.008 163.04C273.192 162.272 270.291 161.888 267.304 161.888C263.379 161.888 260.264 162.613 257.96 164.064C255.741 165.429 254.632 167.947 254.632 171.616C254.632 174.347 255.4 176.608 256.936 178.4C258.557 180.107 261.203 181.557 264.872 182.752L275.368 186.208C281.683 188.341 286.419 191.456 289.576 195.552C292.819 199.563 294.44 204.896 294.44 211.552Z" fill="#093D34"/>
<path d="M153 301C153 296.582 156.582 293 161 293H205C209.418 293 213 296.582 213 301V336C213 340.418 209.418 344 205 344H161C156.582 344 153 340.418 153 336V301Z" fill="#B4DCC5"/>
<path d="M318 301C318 296.582 321.582 293 326 293H370C374.418 293 378 296.582 378 301V336C378 340.418 374.418 344 370 344H326C321.582 344 318 340.418 318 336V301Z" fill="#B4DCC5"/>
<path d="M234 301C234 296.582 237.582 293 242 293H286C290.418 293 294 296.582 294 301V336C294 340.418 290.418 344 286 344H242C237.582 344 234 340.418 234 336V301Z" fill="#B4DCC5"/>
<path d="M153 373C153 368.582 156.582 365 161 365H205C209.418 365 213 368.582 213 373V408C213 412.418 209.418 416 205 416H161C156.582 416 153 412.418 153 408V373Z" fill="#B4DCC5"/>
<path d="M318 373C318 368.582 321.582 365 326 365H370C374.418 365 378 368.582 378 373V408C378 412.418 374.418 416 370 416H326C321.582 416 318 412.418 318 408V373Z" fill="#B4DCC5"/>
<path d="M234 373C234 368.582 237.582 365 242 365H286C290.418 365 294 368.582 294 373V408C294 412.418 290.418 416 286 416H242C237.582 416 234 412.418 234 408V373Z" fill="#B4DCC5"/>
</svg>
